<svg width="88" height="88" viewBox="0 0 88 88" fill="none" xmlns="http://www.w3.org/2000/svg">
<path d="M38.7287 0.848877H3.81358C1.80709 0.848877 0.186035 2.46994 0.186035 4.47642V39.3915C0.186035 39.8903 0.594134 40.2984 1.09292 40.2984H38.7287C39.2275 40.2984 39.6356 39.8903 39.6356 39.3915V1.75576C39.6356 1.25698 39.2275 0.848877 38.7287 0.848877ZM32.3805 33.0433H7.44112V8.10396H32.3805V33.0433ZM16.7367 24.6546H23.0849C23.5837 24.6546 23.9918 24.2465 23.9918 23.7477V17.3995C23.9918 16.9008 23.5837 16.4927 23.0849 16.4927H16.7367C16.2379 16.4927 15.8298 16.9008 15.8298 17.3995V23.7477C15.8298 24.2465 16.2379 24.6546 16.7367 24.6546ZM38.7287 48.4604H1.09292C0.594134 48.4604 0.186035 48.8685 0.186035 49.3673V84.2824C0.186035 86.2889 1.80709 87.9099 3.81358 87.9099H38.7287C39.2275 87.9099 39.6356 87.5018 39.6356 87.003V49.3673C39.6356 48.8685 39.2275 48.4604 38.7287 48.4604ZM32.3805 80.6548H7.44112V55.7155H32.3805V80.6548ZM16.7367 72.2661H23.0849C23.5837 72.2661 23.9918 71.858 23.9918 71.3593V65.0111C23.9918 64.5123 23.5837 64.1042 23.0849 64.1042H16.7367C16.2379 64.1042 15.8298 64.5123 15.8298 65.0111V71.3593C15.8298 71.858 16.2379 72.2661 16.7367 72.2661ZM83.6195 0.848877H48.7044C48.2056 0.848877 47.7975 1.25698 47.7975 1.75576V39.3915C47.7975 39.8903 48.2056 40.2984 48.7044 40.2984H86.3402C86.839 40.2984 87.2471 39.8903 87.2471 39.3915V4.47642C87.2471 2.46994 85.626 0.848877 83.6195 0.848877ZM79.992 33.0433H55.0526V8.10396H79.992V33.0433ZM64.3482 24.6546H70.6964C71.1952 24.6546 71.6033 24.2465 71.6033 23.7477V17.3995C71.6033 16.9008 71.1952 16.4927 70.6964 16.4927H64.3482C63.8494 16.4927 63.4413 16.9008 63.4413 17.3995V23.7477C63.4413 24.2465 63.8494 24.6546 64.3482 24.6546ZM86.3402 48.4604H80.8989C80.4001 48.4604 79.992 48.8685 79.992 49.3673V64.5576H71.1499V49.3673C71.1499 48.8685 70.7418 48.4604 70.243 48.4604H48.7044C48.2056 48.4604 47.7975 48.8685 47.7975 49.3673V87.003C47.7975 87.5018 48.2056 87.9099 48.7044 87.9099H54.1457C54.6445 87.9099 55.0526 87.5018 55.0526 87.003V59.343H63.8948V70.9058C63.8948 71.4046 64.3029 71.8127 64.8017 71.8127H86.3402C86.839 71.8127 87.2471 71.4046 87.2471 70.9058V49.3673C87.2471 48.8685 86.839 48.4604 86.3402 48.4604ZM70.243 80.6548H64.8017C64.3029 80.6548 63.8948 81.0629 63.8948 81.5617V87.003C63.8948 87.5018 64.3029 87.9099 64.8017 87.9099H70.243C70.7418 87.9099 71.1499 87.5018 71.1499 87.003V81.5617C71.1499 81.0629 70.7418 80.6548 70.243 80.6548ZM86.3402 80.6548H80.8989C80.4001 80.6548 79.992 81.0629 79.992 81.5617V87.003C79.992 87.5018 80.4001 87.9099 80.8989 87.9099H86.3402C86.839 87.9099 87.2471 87.5018 87.2471 87.003V81.5617C87.2471 81.0629 86.839 80.6548 86.3402 80.6548Z" fill="black"/>
</svg>
